<?xml version="1.0" encoding="UTF-8" standalone="no"?>
<!DOCTYPE svg PUBLIC "-//W3C//DTD SVG 1.1//EN"
 "http://www.w3.org/Graphics/SVG/1.1/DTD/svg11.dtd">
<!-- Generated by graphviz version 2.40.1 (20161225.0304)
 -->
<!-- Title: graphname Pages: 1 -->
<svg width="929pt" height="1391pt"
 viewBox="0.00 0.00 929.00 1390.67" xmlns="http://www.w3.org/2000/svg" xmlns:xlink="http://www.w3.org/1999/xlink">
<g id="graph0" class="graph" transform="scale(1 1) rotate(0) translate(4 1386.674)">
<title>graphname</title>
<polygon fill="#ffffff" stroke="transparent" points="-4,4 -4,-1386.674 925,-1386.674 925,4 -4,4"/>
<g id="clust1" class="cluster">
<title>cluster_0</title>
<polygon fill="#d3d3d3" stroke="#d3d3d3" points="295,-1251.2839 295,-1374.674 913,-1374.674 913,-1251.2839 295,-1251.2839"/>
<text text-anchor="middle" x="325.7479" y="-1358.074" font-family="Times,serif" font-size="14.00" fill="#000000">main.py</text>
</g>
<g id="clust2" class="cluster">
<title>cluster_1</title>
<polygon fill="#d3d3d3" stroke="#d3d3d3" points="315,-554.2214 315,-1216.4839 893,-1216.4839 893,-554.2214 315,-554.2214"/>
<text text-anchor="middle" x="434.4064" y="-1199.8839" font-family="Times,serif" font-size="14.00" fill="#000000">tvm/python/tvm/relay/frontend/onnx.py</text>
</g>
<g id="clust3" class="cluster">
<title>cluster_2</title>
<polygon fill="#d3d3d3" stroke="#d3d3d3" points="196,-269.2313 196,-519.4214 668,-519.4214 668,-269.2313 196,-269.2313"/>
<text text-anchor="middle" x="280.7872" y="-502.8214" font-family="Times,serif" font-size="14.00" fill="#000000">/relay/frontend/common.py</text>
</g>
<g id="clust4" class="cluster">
<title>cluster_3</title>
<polygon fill="#d3d3d3" stroke="#d3d3d3" points="8,-8 8,-234.4313 508,-234.4313 508,-8 8,-8"/>
<text text-anchor="middle" x="67.5214" y="-217.8313" font-family="Times,serif" font-size="14.00" fill="#000000">/relay/op/nn/nn.py</text>
</g>
<!-- main -->
<g id="node1" class="node">
<title>main</title>
<ellipse fill="#ffffff" stroke="#ffffff" cx="604" cy="-1300.579" rx="300.7697" ry="41.0911"/>
<text text-anchor="middle" x="604" y="-1313.179" font-family="Times,serif" font-size="14.00" fill="#000000">import tvm.relay as relay&#13;</text>
<text text-anchor="middle" x="604" y="-1296.379" font-family="Times,serif" font-size="14.00" fill="#000000"> &#160;&#160;&#160;&#160;&#160;&#160;&#160;mod, params = relay.frontend.from_onnx(onnx_model, shape_dict)&#13;</text>
<text text-anchor="middle" x="604" y="-1279.579" font-family="Times,serif" font-size="14.00" fill="#000000"> &#160;&#160;&#160;&#160;&#160;&#160;&#160;// Return: (tvm.IRModule, dict)</text>
</g>
<!-- onnx0 -->
<g id="node2" class="node">
<title>onnx0</title>
<ellipse fill="#ffffff" stroke="#ffffff" cx="604" cy="-1154.2683" rx="130.2085" ry="29.3315"/>
<text text-anchor="middle" x="604" y="-1158.4683" font-family="Times,serif" font-size="14.00" fill="#000000">from .. import op as _op &#13;</text>
<text text-anchor="middle" x="604" y="-1141.6683" font-family="Times,serif" font-size="14.00" fill="#000000"> &#160;&#160;&#160;&#160;&#160;&#160;&#160;GraphProto.from_onnx()</text>
</g>
<!-- main&#45;&gt;onnx0 -->
<g id="edge1" class="edge">
<title>main&#45;&gt;onnx0</title>
<path fill="none" stroke="#000000" d="M604,-1259.0436C604,-1238.6116 604,-1214.1048 604,-1193.9313"/>
<polygon fill="#000000" stroke="#000000" points="607.5001,-1193.8214 604,-1183.8214 600.5001,-1193.8214 607.5001,-1193.8214"/>
<text text-anchor="middle" x="623.0526" y="-1228.6839" font-family="Times,serif" font-size="14.00" fill="#000000">invoke</text>
</g>
<!-- onnx1 -->
<g id="node3" class="node">
<title>onnx1</title>
<ellipse fill="#ffffff" stroke="#ffffff" cx="604" cy="-1004.637" rx="281.0777" ry="29.3315"/>
<text text-anchor="middle" x="604" y="-1008.837" font-family="Times,serif" font-size="14.00" fill="#000000">op = GraphProto._convert_operator(op_name, ...) &#13;</text>
<text text-anchor="middle" x="604" y="-992.037" font-family="Times,serif" font-size="14.00" fill="#000000"> &#160;&#160;&#160;&#160;&#160;&#160;&#160;// Return converted relay function: tvm.relay.function.Function</text>
</g>
<!-- onnx0&#45;&gt;onnx1 -->
<g id="edge2" class="edge">
<title>onnx0&#45;&gt;onnx1</title>
<path fill="none" stroke="#000000" d="M604,-1124.706C604,-1101.6501 604,-1069.41 604,-1044.1425"/>
<polygon fill="#000000" stroke="#000000" points="607.5001,-1044.1379 604,-1034.1379 600.5001,-1044.1379 607.5001,-1044.1379"/>
<text text-anchor="middle" x="623.0526" y="-1075.2526" font-family="Times,serif" font-size="14.00" fill="#000000">invoke</text>
</g>
<!-- onnx2 -->
<g id="node4" class="node">
<title>onnx2</title>
<ellipse fill="#ffffff" stroke="#ffffff" cx="498" cy="-866.4214" rx="109.9363" ry="18"/>
<text text-anchor="middle" x="498" y="-862.2214" font-family="Times,serif" font-size="14.00" fill="#000000">_get_convert_map(opset)</text>
</g>
<!-- onnx1&#45;&gt;onnx2 -->
<g id="edge3" class="edge">
<title>onnx1&#45;&gt;onnx2</title>
<path fill="none" stroke="#000000" d="M570.7237,-975.2822C559.3206,-964.3014 546.9716,-951.3051 537.15,-938.2214 526.7619,-924.3828 517.3916,-907.4474 510.4244,-893.5002"/>
<polygon fill="#000000" stroke="#000000" points="513.5198,-891.8621 506.0019,-884.3967 507.2234,-894.9209 513.5198,-891.8621"/>
<text text-anchor="middle" x="605.425" y="-925.6214" font-family="Times,serif" font-size="14.00" fill="#000000">invoke: need conversion</text>
</g>
<!-- onnx3 -->
<g id="node8" class="node">
<title>onnx3</title>
<ellipse fill="#ffffff" stroke="#ffffff" cx="432" cy="-295.2313" rx="103.0578" ry="18"/>
<text text-anchor="middle" x="432" y="-291.0313" font-family="Times,serif" font-size="14.00" fill="#000000">get_relay_op(op_name)</text>
</g>
<!-- onnx1&#45;&gt;onnx3 -->
<g id="edge8" class="edge">
<title>onnx1&#45;&gt;onnx3</title>
<path fill="none" stroke="#000000" d="M660.9595,-975.8277C675.9401,-964.0936 688,-948.7645 688,-929.8214 688,-929.8214 688,-929.8214 688,-358.6313 688,-326.1734 609.4812,-310.2213 539.4138,-302.448"/>
<polygon fill="#000000" stroke="#000000" points="539.461,-298.9334 529.1476,-301.3594 538.7228,-305.8944 539.461,-298.9334"/>
<text text-anchor="middle" x="803.2711" y="-691.0214" font-family="Times,serif" font-size="14.00" fill="#000000">invoke: for compatible operators &#13;</text>
<text text-anchor="middle" x="803.2711" y="-674.2214" font-family="Times,serif" font-size="14.00" fill="#000000"> &#160;&#160;&#160;&#160;&#160;&#160;&#160;that do NOT require any conversion</text>
</g>
<!-- onnx4 -->
<g id="node5" class="node">
<title>onnx4</title>
<ellipse fill="#ffffff" stroke="#ffffff" cx="464" cy="-739.6214" rx="114.0505" ry="18"/>
<text text-anchor="middle" x="464" y="-735.4214" font-family="Times,serif" font-size="14.00" fill="#000000">Conv.get_converter(opset)</text>
</g>
<!-- onnx2&#45;&gt;onnx4 -->
<g id="edge4" class="edge">
<title>onnx2&#45;&gt;onnx4</title>
<path fill="none" stroke="#000000" d="M493.1286,-848.254C487.4732,-827.1624 478.0809,-792.1349 471.4943,-767.5708"/>
<polygon fill="#000000" stroke="#000000" points="474.8329,-766.5073 468.8623,-757.755 468.0717,-768.3203 474.8329,-766.5073"/>
<text text-anchor="middle" x="532.729" y="-798.8214" font-family="Times,serif" font-size="14.00" fill="#000000">One of the returns</text>
</g>
<!-- onnx4_1 -->
<g id="node6" class="node">
<title>onnx4_1</title>
<ellipse fill="#ffffff" stroke="#ffffff" cx="432" cy="-580.2214" rx="77.656" ry="18"/>
<text text-anchor="middle" x="432" y="-576.0214" font-family="Times,serif" font-size="14.00" fill="#000000">Conv._impl_v1()</text>
</g>
<!-- onnx4&#45;&gt;onnx4_1 -->
<g id="edge5" class="edge">
<title>onnx4&#45;&gt;onnx4_1</title>
<path fill="none" stroke="#000000" d="M460.3292,-721.3361C454.7834,-693.7113 444.2234,-641.1091 437.68,-608.515"/>
<polygon fill="#000000" stroke="#000000" points="441.0279,-607.4088 435.628,-598.2933 434.1648,-608.7866 441.0279,-607.4088"/>
<text text-anchor="middle" x="491.4783" y="-639.4214" font-family="Times,serif" font-size="14.00" fill="#000000">need first define</text>
</g>
<!-- onnx5 -->
<g id="node7" class="node">
<title>onnx5</title>
<ellipse fill="#ffffff" stroke="#ffffff" cx="432" cy="-445.3263" rx="227.9145" ry="41.0911"/>
<text text-anchor="middle" x="432" y="-457.9263" font-family="Times,serif" font-size="14.00" fill="#000000">class AttrCvt(object)&#13;</text>
<text text-anchor="middle" x="432" y="-441.1263" font-family="Times,serif" font-size="14.00" fill="#000000"> &#160;&#160;&#160;&#160;&#160;&#160;&#160;// Turn op attributes from ONNX to TVM Relay.&#13;</text>
<text text-anchor="middle" x="432" y="-424.3263" font-family="Times,serif" font-size="14.00" fill="#000000"> &#160;&#160;&#160;&#160;&#160;&#160;&#160;// Changed some names. </text>
</g>
<!-- onnx4_1&#45;&gt;onnx5 -->
<g id="edge6" class="edge">
<title>onnx4_1&#45;&gt;onnx5</title>
<path fill="none" stroke="#000000" d="M432,-562.0288C432,-545.3776 432,-519.9201 432,-497.0264"/>
<polygon fill="#000000" stroke="#000000" points="435.5001,-496.7289 432,-486.7289 428.5001,-496.729 435.5001,-496.7289"/>
<text text-anchor="middle" x="531.5267" y="-531.6214" font-family="Times,serif" font-size="14.00" fill="#000000">invoke: if need attribute conversion</text>
</g>
<!-- onnx7 -->
<g id="node9" class="node">
<title>onnx7</title>
<ellipse fill="#ffffff" stroke="#ffffff" cx="165" cy="-183.6313" rx="75.8701" ry="18"/>
<text text-anchor="middle" x="165" y="-179.4313" font-family="Times,serif" font-size="14.00" fill="#000000">op.nn.bias_add()</text>
</g>
<!-- onnx4_1&#45;&gt;onnx7 -->
<g id="edge10" class="edge">
<title>onnx4_1&#45;&gt;onnx7</title>
<path fill="none" stroke="#000000" d="M368.1712,-569.8844C306.7994,-558.9279 219.4262,-540.3408 192,-519.4214 161.9023,-496.4642 150,-483.18 150,-445.3263 150,-445.3263 150,-445.3263 150,-295.2313 150,-266.5413 154.9296,-234.0693 159.1368,-211.5802"/>
<polygon fill="#000000" stroke="#000000" points="162.5846,-212.1856 161.0589,-201.7012 155.7134,-210.8487 162.5846,-212.1856"/>
<text text-anchor="middle" x="169.0526" y="-354.4313" font-family="Times,serif" font-size="14.00" fill="#000000">invoke</text>
</g>
<!-- onnx5&#45;&gt;onnx3 -->
<g id="edge7" class="edge">
<title>onnx5&#45;&gt;onnx3</title>
<path fill="none" stroke="#000000" d="M432,-403.9149C432,-378.412 432,-346.3752 432,-323.7095"/>
<polygon fill="#000000" stroke="#000000" points="435.5001,-323.4051 432,-313.4051 428.5001,-323.4052 435.5001,-323.4051"/>
<text text-anchor="middle" x="451.0526" y="-354.4313" font-family="Times,serif" font-size="14.00" fill="#000000">invoke</text>
</g>
<!-- onnx9 -->
<g id="node11" class="node">
<title>onnx9</title>
<ellipse fill="#ffffff" stroke="#ffffff" cx="429" cy="-183.6313" rx="70.0751" ry="18"/>
<text text-anchor="middle" x="429" y="-179.4313" font-family="Times,serif" font-size="14.00" fill="#000000">op.nn.conv2d()</text>
</g>
<!-- onnx3&#45;&gt;onnx9 -->
<g id="edge11" class="edge">
<title>onnx3&#45;&gt;onnx9</title>
<path fill="none" stroke="#000000" d="M431.5046,-276.8028C431.0306,-259.1703 430.3089,-232.3237 429.7618,-211.9704"/>
<polygon fill="#000000" stroke="#000000" points="433.2537,-211.6191 429.4862,-201.7168 426.2562,-211.8073 433.2537,-211.6191"/>
<text text-anchor="middle" x="590.0134" y="-246.6313" font-family="Times,serif" font-size="14.00" fill="#000000">Find the callable function from Relay based on op_name</text>
</g>
<!-- onnx8 -->
<g id="node10" class="node">
<title>onnx8</title>
<ellipse fill="#ffffff" stroke="#ffffff" cx="175" cy="-45.4156" rx="158.677" ry="29.3315"/>
<text text-anchor="middle" x="175" y="-49.6156" font-family="Times,serif" font-size="14.00" fill="#000000">_make.bias_add()&#13;</text>
<text text-anchor="middle" x="175" y="-32.8156" font-family="Times,serif" font-size="14.00" fill="#000000"> &#160;&#160;&#160;&#160;&#160;&#160;&#160;// Python Class registerd in C++</text>
</g>
<!-- onnx7&#45;&gt;onnx8 -->
<g id="edge9" class="edge">
<title>onnx7&#45;&gt;onnx8</title>
<path fill="none" stroke="#000000" d="M166.3073,-165.562C167.7796,-145.2134 170.2169,-111.5261 172.1366,-84.9923"/>
<polygon fill="#000000" stroke="#000000" points="175.6394,-85.0784 172.8703,-74.8519 168.6577,-84.5732 175.6394,-85.0784"/>
<text text-anchor="middle" x="190.0526" y="-116.0313" font-family="Times,serif" font-size="14.00" fill="#000000">invoke</text>
</g>
<!-- onnx10 -->
<g id="node12" class="node">
<title>onnx10</title>
<ellipse fill="#ffffff" stroke="#ffffff" cx="426" cy="-45.4156" rx="74.1039" ry="18"/>
<text text-anchor="middle" x="426" y="-41.2156" font-family="Times,serif" font-size="14.00" fill="#000000">_make.conv2d()</text>
</g>
<!-- onnx9&#45;&gt;onnx10 -->
<g id="edge12" class="edge">
<title>onnx9&#45;&gt;onnx10</title>
<path fill="none" stroke="#000000" d="M428.6078,-165.562C428.1002,-142.1773 427.2103,-101.1764 426.6131,-73.6611"/>
<polygon fill="#000000" stroke="#000000" points="430.1086,-73.411 426.3923,-63.4894 423.1102,-73.563 430.1086,-73.411"/>
</g>
</g>
</svg>
