<?xml version="1.0" encoding="UTF-8" standalone="no"?>
<!DOCTYPE svg PUBLIC "-//W3C//DTD SVG 1.1//EN"
 "http://www.w3.org/Graphics/SVG/1.1/DTD/svg11.dtd">
<!-- Generated by graphviz version 2.40.1 (20161225.0304)
 -->
<!-- Title: graphname Pages: 1 -->
<svg width="640pt" height="955pt"
 viewBox="0.00 0.00 640.00 954.84" xmlns="http://www.w3.org/2000/svg" xmlns:xlink="http://www.w3.org/1999/xlink">
<g id="graph0" class="graph" transform="scale(1 1) rotate(0) translate(4 950.8427)">
<title>graphname</title>
<polygon fill="#ffffff" stroke="transparent" points="-4,4 -4,-950.8427 636,-950.8427 636,4 -4,4"/>
<g id="clust1" class="cluster">
<title>cluster_0</title>
<polygon fill="#d3d3d3" stroke="#d3d3d3" points="8,-815.4526 8,-938.8427 624,-938.8427 624,-815.4526 8,-815.4526"/>
<text text-anchor="middle" x="38.7479" y="-922.2427" font-family="Times,serif" font-size="14.00" fill="#000000">main.py</text>
</g>
<g id="clust2" class="cluster">
<title>cluster_1</title>
<polygon fill="#d3d3d3" stroke="#d3d3d3" points="58,-507.6313 58,-780.6526 574,-780.6526 574,-507.6313 58,-507.6313"/>
<text text-anchor="middle" x="176.6364" y="-764.0526" font-family="Times,serif" font-size="14.00" fill="#000000">tvm/python/tvm/relay/build_module.py</text>
</g>
<g id="clust3" class="cluster">
<title>cluster_2</title>
<polygon fill="#d3d3d3" stroke="#d3d3d3" points="94,-396.0313 94,-472.8313 538,-472.8313 538,-396.0313 94,-396.0313"/>
<text text-anchor="middle" x="216.1364" y="-456.2313" font-family="Times,serif" font-size="14.00" fill="#000000">tvm/python/tvm/relay/_build_module.py</text>
</g>
<g id="clust4" class="cluster">
<title>cluster_3</title>
<polygon fill="#d3d3d3" stroke="#d3d3d3" points="145,-8 145,-361.2313 487,-361.2313 487,-8 145,-8"/>
<text text-anchor="middle" x="285.3875" y="-344.6313" font-family="Times,serif" font-size="14.00" fill="#000000">tvm/python/src/relay/backend/build_module.cc</text>
</g>
<!-- main -->
<g id="node1" class="node">
<title>main</title>
<ellipse fill="#ffffff" stroke="#ffffff" cx="316" cy="-864.7477" rx="300.1412" ry="41.0911"/>
<text text-anchor="start" x="111.6413" y="-877.3477" font-family="Times,serif" font-size="14.00" fill="#000000">mod, params = relay.frontend.from_pytorch(scripted_model, shape_list) </text>
<text text-anchor="start" x="111.6413" y="-860.5477" font-family="Times,serif" font-size="14.00" fill="#000000"> with tvm.transform.PassContext(opt_level=3):</text>
<text text-anchor="start" x="111.6413" y="-843.7477" font-family="Times,serif" font-size="14.00" fill="#000000"> &#160;&#160;&#160;&#160;&#160;&#160;&#160;&#160;lib = relay.build(mod, target, params)</text>
</g>
<!-- build0 -->
<g id="node2" class="node">
<title>build0</title>
<ellipse fill="#ffffff" stroke="#ffffff" cx="316" cy="-718.437" rx="249.507" ry="29.3315"/>
<text text-anchor="middle" x="316" y="-722.637" font-family="Times,serif" font-size="14.00" fill="#000000">bld_mod = BuildModule()&#13;</text>
<text text-anchor="middle" x="316" y="-705.837" font-family="Times,serif" font-size="14.00" fill="#000000"> &#160;&#160;&#160;&#160;&#160;&#160;&#160;graph_json, runtime_mod, params = bld_mod.build(...)</text>
</g>
<!-- main&#45;&gt;build0 -->
<g id="edge1" class="edge">
<title>main&#45;&gt;build0</title>
<path fill="none" stroke="#000000" d="M316,-823.2123C316,-802.7803 316,-778.2735 316,-758.1"/>
<polygon fill="#000000" stroke="#000000" points="319.5001,-757.9901 316,-747.9901 312.5001,-757.9901 319.5001,-757.9901"/>
<text text-anchor="middle" x="335.0526" y="-792.8526" font-family="Times,serif" font-size="14.00" fill="#000000">invoke</text>
</g>
<!-- build1 -->
<g id="node3" class="node">
<title>build1</title>
<ellipse fill="#ffffff" stroke="#ffffff" cx="316" cy="-556.9263" rx="217.7404" ry="41.0911"/>
<text text-anchor="start" x="170.1193" y="-569.5263" font-family="Times,serif" font-size="14.00" fill="#000000">class BuildModule(object): </text>
<text text-anchor="start" x="170.1193" y="-552.7263" font-family="Times,serif" font-size="14.00" fill="#000000"> &#160;&#160;&#160;&#160;&#160;&#160;&#160;def __init__(self): </text>
<text text-anchor="middle" x="316" y="-535.9263" font-family="Times,serif" font-size="14.00" fill="#000000"> &#160;&#160;&#160;&#160;&#160;&#160;&#160;&#160;&#160;&#160;&#160;&#160;&#160;self.mod = _build_module._BuildModule()</text>
</g>
<!-- build0&#45;&gt;build1 -->
<g id="edge2" class="edge">
<title>build0&#45;&gt;build1</title>
<path fill="none" stroke="#000000" d="M316,-688.8135C316,-666.4634 316,-635.2366 316,-608.7784"/>
<polygon fill="#000000" stroke="#000000" points="319.5001,-608.5259 316,-598.5259 312.5001,-608.5259 319.5001,-608.5259"/>
<text text-anchor="middle" x="335.0526" y="-639.4214" font-family="Times,serif" font-size="14.00" fill="#000000">invoke</text>
</g>
<!-- build2 -->
<g id="node4" class="node">
<title>build2</title>
<ellipse fill="#ffffff" stroke="#ffffff" cx="316" cy="-422.0313" rx="213.7884" ry="18"/>
<text text-anchor="middle" x="316" y="-417.8313" font-family="Times,serif" font-size="14.00" fill="#000000">tvm._ffi._init_api(&quot;relay.build_module&quot;, __name__)</text>
</g>
<!-- build1&#45;&gt;build2 -->
<g id="edge3" class="edge">
<title>build1&#45;&gt;build2</title>
<path fill="none" stroke="#000000" d="M316,-515.3527C316,-494.1579 316,-468.9453 316,-450.0726"/>
<polygon fill="#000000" stroke="#000000" points="319.5001,-450.0391 316,-440.0391 312.5001,-450.0391 319.5001,-450.0391"/>
<text text-anchor="middle" x="335.0526" y="-485.0313" font-family="Times,serif" font-size="14.00" fill="#000000">invoke</text>
</g>
<!-- build4 -->
<g id="node5" class="node">
<title>build4</title>
<ellipse fill="#ffffff" stroke="#ffffff" cx="316" cy="-310.4313" rx="112.8578" ry="18"/>
<text text-anchor="middle" x="316" y="-306.2313" font-family="Times,serif" font-size="14.00" fill="#000000">class RelayBuildModule()</text>
</g>
<!-- build2&#45;&gt;build4 -->
<g id="edge4" class="edge">
<title>build2&#45;&gt;build4</title>
<path fill="none" stroke="#000000" d="M316,-403.6028C316,-385.9703 316,-359.1237 316,-338.7704"/>
<polygon fill="#000000" stroke="#000000" points="319.5001,-338.5168 316,-328.5168 312.5001,-338.5169 319.5001,-338.5168"/>
<text text-anchor="middle" x="335.0526" y="-373.4313" font-family="Times,serif" font-size="14.00" fill="#000000">invoke</text>
</g>
<!-- build5 -->
<g id="node6" class="node">
<title>build5</title>
<ellipse fill="#ffffff" stroke="#ffffff" cx="316" cy="-183.6313" rx="125.6416" ry="18"/>
<text text-anchor="middle" x="316" y="-179.4313" font-family="Times,serif" font-size="14.00" fill="#000000">RelayBuildModule::Build(...)</text>
</g>
<!-- build4&#45;&gt;build5 -->
<g id="edge5" class="edge">
<title>build4&#45;&gt;build5</title>
<path fill="none" stroke="#000000" d="M316,-292.2639C316,-271.2665 316,-236.4573 316,-211.9103"/>
<polygon fill="#000000" stroke="#000000" points="319.5001,-211.7649 316,-201.7649 312.5001,-211.765 319.5001,-211.7649"/>
<text text-anchor="middle" x="335.0526" y="-242.8313" font-family="Times,serif" font-size="14.00" fill="#000000">invoke</text>
</g>
<!-- build6 -->
<g id="node7" class="node">
<title>build6</title>
<ellipse fill="#ffffff" stroke="#ffffff" cx="316" cy="-45.4156" rx="162.5431" ry="29.3315"/>
<text text-anchor="middle" x="316" y="-49.6156" font-family="Times,serif" font-size="14.00" fill="#000000">RelayBuildModule::BuildRelay(...)&#13;</text>
<text text-anchor="middle" x="316" y="-32.8156" font-family="Times,serif" font-size="14.00" fill="#000000"> &#160;&#160;&#160;&#160;&#160;&#160;&#160;// Include Optimize and Codegen</text>
</g>
<!-- build5&#45;&gt;build6 -->
<g id="edge6" class="edge">
<title>build5&#45;&gt;build6</title>
<path fill="none" stroke="#000000" d="M316,-165.562C316,-145.2134 316,-111.5261 316,-84.9923"/>
<polygon fill="#000000" stroke="#000000" points="319.5001,-84.8518 316,-74.8519 312.5001,-84.8519 319.5001,-84.8518"/>
<text text-anchor="middle" x="335.0526" y="-116.0313" font-family="Times,serif" font-size="14.00" fill="#000000">invoke</text>
</g>
</g>
</svg>
